<svg width="120" height="120" viewBox="0 0 120 120" fill="none" xmlns="http://www.w3.org/2000/svg">
  <path 
    d="M80.21,42.92c-0.6-1.18-1.13-2.49-1.72-3.93c-0.59-1.45-1.12-2.84-1.58-4.17c-0.45-1.33-0.8-2.45-1.03-3.37
    c-0.77-3.03-2.31-5.54-4.61-7.53c-2.31-1.99-4.91-2.98-7.81-2.98c-2.49,0-4.78,0.79-6.87,2.37c-2.09,1.58-3.55,3.64-4.38,6.17
    c-1.06,3.48-2.43,6.28-4.09,8.39c-1.66,2.11-3.6,3.17-5.81,3.17c-1.18,0-2.24-0.41-3.16-1.22c-0.92-0.81-1.38-1.86-1.38-3.14
    c0-1.25,0.47-2.3,1.4-3.16c0.94-0.86,2.06-1.29,3.37-1.29c0.34,0,0.63,0.02,0.86,0.07c0.74,0.13,1.45,0.2,2.13,0.2
    c1.06,0,1.99-0.24,2.8-0.72c0.81-0.48,1.21-1.19,1.21-2.13c0-1.39-0.62-2.57-1.87-3.53c-1.25-0.96-2.76-1.44-4.52-1.44
    c-1.85,0-3.56,0.46-5.14,1.37c-1.58,0.91-2.83,2.15-3.75,3.73c-0.92,1.58-1.38,3.3-1.38,5.17c0,2.93,1.04,5.35,3.12,7.27
    c2.08,1.92,4.63,2.88,7.65,2.88c2.83,0,5.4-0.77,7.72-2.3c2.31-1.53,4.3-3.84,5.95-6.91c0.61-1.15,1.27-1.73,1.98-1.73
    c0.7,0,1.05,0.57,1.05,1.73v25.34c0,2.8,0.44,4.82,1.33,6.07c0.89,1.25,2.14,1.87,3.75,1.87c1.7,0,3.02-0.63,3.93-1.89
    c0.92-1.26,1.38-3.27,1.38-6.05V53.7h0.17c1.06,2.45,2.52,4.32,4.38,5.62c1.87,1.3,3.99,1.94,6.38,1.94
    c2.08,0,3.93-0.54,5.55-1.62c1.63-1.08,2.91-2.55,3.86-4.43c0.94-1.87,1.42-3.95,1.42-6.23c0-2.35-0.5-4.47-1.49-6.38
    C83.27,45.25,81.92,43.88,80.21,42.92z"
    fill="#ff7300"
  />
  <path
    d="M75.66,76.84c-0.29,0.29-0.59,0.54-0.89,0.76c-5.44,3.93-12.13,6.25-19.36,6.25c-18.26,0-33.06-14.8-33.06-33.06
    c0-18.26,14.8-33.06,33.06-33.06c7.63,0,14.64,2.59,20.25,6.92"
    stroke="#ff7300"
    strokeWidth="1.5"
    strokeLinecap="round"
    fill="none"
  />
</svg>
